# xmcd
#
# Track frame offsets:
# 150
# 2927
# 14395
# 27759
# 40729
# 51204
# 147861
# 171887
# 184734
# 195214
# 212949
# 224111
# 238722
# 253563
# 264035
# 274376
# 285989
# 313598
#
# Disc length: 4354 seconds
#
#
# Revision: 0
# Processed by: cddbd v1.5.2PL0 Copyright (c) Steve Scherf et al.
# Submitted via: FreeRIP 2.951 
#
DISCID=03110012
DTITLE=The Doors - Psychedelic-Blues Trips - Brilliant Outtakes, Demos and Specials
DYEAR=2000
DGENRE=Blues
TTITLE0=Petition: The Lord with Prayer
TTITLE1=The River Knows
TTITLE2=Gloria
TTITLE3=Someday Soon
TTITLE4=Let it bleed
TTITLE5=Introduction - Rock is Dead #1 - Rock is Dead #2 - Rock is Dead #3 - Rock me Baby - Mystery Train - Rock is Dead #4
TTITLE6=Orange County Suite
TTITLE7=Peace Frog
TTITLE8=I´m your Doctor
TTITLE9=I will never be untrue
TTITLE10=Wild Child
TTITLE11=Touch me
TTITLE12=Love me two Times
TTITLE13=Summer almost gone
TTITLE14=Whiskey, Mystics and Men #1
TTITLE15=Love me Tender
TTITLE16=Me and the Devils Blues
TTITLE17=Light my Fire
EXTD=
EXTT0=
EXTT1=
EXTT2=
EXTT3=
EXTT4=
EXTT5=
EXTT6=
EXTT7=
EXTT8=
EXTT9=
EXTT10=
EXTT11=
EXTT12=
EXTT13=
EXTT14=
EXTT15=
EXTT16=
EXTT17=
PLAYORDER=
